<svg width="236" height="33" viewBox="0 0 236 33" fill="none" xmlns="http://www.w3.org/2000/svg">
<g id="Group-1799-1 (1) 1" clip-path="url(#clip0_158_3096)">
<path id="Vector" d="M26.5946 11.5368C23.6397 11.5368 21.2613 9.17568 21.2613 6.24216C21.2613 3.30864 18.8829 0.94751 15.9279 0.94751C12.973 0.94751 10.5946 3.30864 10.5946 6.24216C10.5946 9.17568 8.21623 11.5368 5.26126 11.5368C2.30631 11.5368 0 13.898 0 16.7957C0 19.7292 2.37838 22.0904 5.33333 22.0904C8.28829 22.0904 10.6667 19.7292 10.6667 16.7957C10.6667 13.8622 13.045 11.5011 16 11.5011C18.955 11.5011 21.3333 13.8622 21.3333 16.7957C21.3333 19.7292 23.7117 22.0904 26.6667 22.0904C29.6216 22.0904 32 19.7292 32 16.7957C31.9279 13.898 29.5495 11.5368 26.5946 11.5368Z" fill="#01974D"/>
<path id="Vector_2" d="M16.0003 22.0903C13.1509 22.0903 10.8574 24.5112 10.8574 27.5189C10.8574 30.5266 13.1509 32.9475 16.0003 32.9475C18.8497 32.9475 21.1431 30.5266 21.1431 27.5189C21.1431 24.5112 18.8497 22.0903 16.0003 22.0903Z" fill="#01974D"/>
<path id="Vector_3" d="M55.3918 7.23315C50.0435 7.23315 45.7139 11.579 45.7139 16.9474V26.6617H49.6068V20.8185H61.2493V26.6617H65.1424V16.9474C65.0699 11.579 60.7036 7.23315 55.3918 7.23315ZM49.5705 16.9474C49.5705 13.7337 52.19 11.1042 55.3918 11.1042C58.5933 11.1042 61.2133 13.7337 61.2133 16.9474H49.5705Z" fill="#4D4D4F"/>
<path id="Vector_4" d="M76.5717 7.23315H66.8574V26.6617H76.5717C81.9403 26.6617 86.286 22.324 86.286 16.9657C86.286 11.5709 81.9037 7.23315 76.5717 7.23315ZM76.5717 22.7614H70.7283V11.097H76.5717C79.7854 11.097 82.4151 13.7215 82.4151 16.9292C82.3786 20.1369 79.7854 22.7614 76.5717 22.7614Z" fill="#4D4D4F"/>
<path id="Vector_5" d="M97.7143 7.23315C92.3457 7.23315 88 11.579 88 16.9474V26.6617H91.9074V16.9474C91.9074 13.7337 94.5371 11.1042 97.7509 11.1042C100.965 11.1042 103.594 13.7337 103.594 16.9474V26.6617H107.429V16.9474C107.429 11.579 103.046 7.23315 97.7143 7.23315Z" fill="#4D4D4F"/>
<path id="Vector_6" d="M130.286 7.23315H120.571V26.6617H130.286C135.654 26.6617 140 22.324 140 16.9657C140 11.5709 135.618 7.23315 130.286 7.23315ZM130.286 22.7614H124.442V11.097H130.286C133.499 11.097 136.129 13.7215 136.129 16.9292C136.092 20.1369 133.499 22.7614 130.286 22.7614Z" fill="#4D4D4F"/>
<path id="Vector_7" d="M145.714 7.23315H141.714V26.6617H145.714V7.23315Z" fill="#4D4D4F"/>
<path id="Vector_8" d="M148 16.9657C148 22.324 152.218 26.6617 157.429 26.6617H166.857V14.9973H157.429V18.8976H163.1V22.7979H157.429C154.309 22.7979 151.757 20.1734 151.757 16.9657C151.757 13.758 154.309 11.1334 157.429 11.1334H166.857V7.23315H157.429C152.218 7.26961 148 11.6073 148 16.9657Z" fill="#4D4D4F"/>
<path id="Vector_9" d="M172.571 7.23315H169.143V26.6617H172.571V7.23315Z" fill="#4D4D4F"/>
<path id="Vector_10" d="M184.251 7.23315C179.06 7.23315 174.857 11.579 174.857 16.9474V26.6617H178.636V16.9474C178.636 13.7337 181.179 11.1042 184.286 11.1042C187.393 11.1042 189.936 13.7337 189.936 16.9474V26.6617H193.715V16.9474C193.679 11.579 189.441 7.23315 184.251 7.23315Z" fill="#4D4D4F"/>
<path id="Vector_11" d="M196 13.0654V20.8295C196 24.0372 198.547 26.6617 201.661 26.6617H214.857V22.7614H201.661C200.635 22.7614 199.786 21.8866 199.786 20.8295V18.8976H213.654V14.9973H199.786V13.0654C199.786 12.0083 200.635 11.1334 201.661 11.1334H214.857V7.23315H201.661C198.547 7.23315 196 9.85767 196 13.0654Z" fill="#4D4D4F"/>
<path id="Vector_12" d="M236 7.23315H217.143V11.1334H224.679V26.6617H228.464V11.1334H236V7.23315Z" fill="#4D4D4F"/>
</g>
<defs>
<clipPath id="clip0_158_3096">
<rect width="236" height="32" fill="white" transform="translate(0 0.94751)"/>
</clipPath>
</defs>
</svg>
