<svg width="50" height="33" viewBox="0 0 236 33" fill="none" xmlns="http://www.w3.org/2000/svg">
    <g id="Group-1799-1 (1) 1" clip-path="url(#clip0_158_3096)">
        <path id="Vector"
            d="M26.5946 11.5368C23.6397 11.5368 21.2613 9.17568 21.2613 6.24216C21.2613 3.30864 18.8829 0.94751 15.9279 0.94751C12.973 0.94751 10.5946 3.30864 10.5946 6.24216C10.5946 9.17568 8.21623 11.5368 5.26126 11.5368C2.30631 11.5368 0 13.898 0 16.7957C0 19.7292 2.37838 22.0904 5.33333 22.0904C8.28829 22.0904 10.6667 19.7292 10.6667 16.7957C10.6667 13.8622 13.045 11.5011 16 11.5011C18.955 11.5011 21.3333 13.8622 21.3333 16.7957C21.3333 19.7292 23.7117 22.0904 26.6667 22.0904C29.6216 22.0904 32 19.7292 32 16.7957C31.9279 13.898 29.5495 11.5368 26.5946 11.5368Z"
            fill="#01974D" />
        <path id="Vector_2"
            d="M16.0003 22.0903C13.1509 22.0903 10.8574 24.5112 10.8574 27.5189C10.8574 30.5266 13.1509 32.9475 16.0003 32.9475C18.8497 32.9475 21.1431 30.5266 21.1431 27.5189C21.1431 24.5112 18.8497 22.0903 16.0003 22.0903Z"
            fill="#01974D" />
    </g>

</svg>